<svg xmlns="http://www.w3.org/2000/svg" viewBox="0 0 200 200" width="200" height="200">
  <defs>
    <linearGradient id="heartGradient" x1="0%" y1="0%" x2="100%" y2="100%">
      <stop offset="0%" style="stop-color:#FF6B6B;stop-opacity:1" />
      <stop offset="100%" style="stop-color:#FF8E53;stop-opacity:1" />
    </linearGradient>
  </defs>
  <path d="M90 60 A 30 30 0 0 1 150 60 C 150 80 120 110 90 140 C 60 110 30 80 30 60 A 30 30 0 0 1 90 60 Z" fill="url(#heartGradient)" opacity="0.9" />
  <path d="M110 60 A 30 30 0 0 1 170 60 C 170 80 140 110 110 140 C 80 110 50 80 50 60 A 30 30 0 0 1 110 60 Z" fill="#6B9FFF" opacity="0.7" transform="translate(40, 20)" />
</svg>